<?xml version="1.0" encoding="UTF-8"?>
<svg id="Ebene_2" xmlns="http://www.w3.org/2000/svg" viewBox="0 0 1533.9 1440.5" width="40" height="40"><defs>
<style>.cls-1{stroke-width:14.1px;}.cls-1,.cls-2,.cls-3{fill:none;stroke:#68a521;stroke-linecap:round;stroke-miterlimit:10;}.cls-2{stroke-width:12.2px;}.cls-4{fill:#68a521;}.cls-5{fill:#55960b;}.cls-3{stroke-width:14.4px;}</style>
</defs><g id="Ebene_3">
<path class="cls-3" d="m776.5,1282.7s152.4-752.5,466.4-827.9c98.4-23.6,162-13.3,220.1,67.3"/>
<path class="cls-5" d="m1520.9,575.6v-.2c-10.5-26.4-31.3-48-47.2-58.1-4.6-2.9-8.7-4.8-12.1-5.6-.7-.2-1.4-.3-2-.4,0,0,0,0,0,0-.4,0-.7,0-1.1,0-.7,0-1.4,0-2,.2h0c-.3,0-.5.1-.8.2-.5.2-.9.5-1.4.8-.2.1-.4.3-.5.4-2.6,2.3-5.1,7.3-7,13.9-5.1,17.8-6.4,47.9,2.6,74.2.5,1.5,1,3,1.6,4.4,15.5,39.3,63.7,88.1,74.7,83.8,10.9-4.3,10.6-74.3-4.8-113.6Z"/>
<path class="cls-4" d="m1525.7,689.2c10.9-4.3,11.9-71-2.6-108.2v-.2c-9.9-24.9-26.3-48.9-41.9-58.2-4.5-2.7-19.1-13.2-24.7-11.2"/>
<path class="cls-1" d="m793.4,1282.2s-14.9-650.7-476.3-789.3c-68.3-20.5-143.2-15.7-230.3,84.6"/>
<path class="cls-5" d="m965.2,1430.2l.5.2c59.6,16.7,124.8,9,163.3-5.4,11.1-4.2,19.9-8.8,25.8-13.7,1.2-1,2.3-2,3.3-3,0,0,0,0,0,0,.6-.6,1.1-1.2,1.5-1.7,1-1.3,1.8-2.5,2.4-3.8h0c.3-.6.5-1.2.6-1.7.3-1.1.5-2.2.4-3.5,0-.5,0-1,0-1.5-.6-7.7-6-18.4-15-30.5-24.2-32.4-74.9-74.4-132.7-93.5-3.3-1.1-6.5-2.1-9.8-3-88.9-24.9-237.5-5.2-244.5,19.6-6.9,24.7,115.3,116.5,204.2,141.6Z"/>
<path class="cls-4" d="m761,1288.5c-6.9,24.7,107.8,114.4,191.8,138.2h.5c56.4,15.9,119.7,19,156.5,4.2,10.6-4.3,48.2-16,52.2-28.2"/>
<path class="cls-5" d="m605,1430.2l-.5.2c-59.6,16.7-124.8,9-163.3-5.4-11.1-4.2-19.9-8.8-25.8-13.7-1.2-1-2.3-2-3.3-3,0,0,0,0,0,0-.6-.6-1.1-1.2-1.5-1.7-1-1.3-1.8-2.5-2.4-3.8h0c-.3-.6-.5-1.2-.6-1.7-.3-1.1-.5-2.2-.4-3.5,0-.5,0-1,0-1.5.6-7.7,6-18.4,15-30.5,24.2-32.4,74.9-74.4,132.7-93.5,3.3-1.1,6.5-2.1,9.8-3,88.9-24.9,237.5-5.2,244.5,19.6,6.9,24.7-115.3,116.5-204.2,141.6Z"/>
<path class="cls-4" d="m809.1,1288.5c6.9,24.7-107.8,114.4-191.8,138.2h-.5c-56.4,15.9-119.7,19-156.5,4.2-10.6-4.3-48.2-16-52.2-28.2"/>
<path class="cls-5" d="m1003,848.4v1.4c0,154.4-68.2,305.6-134.3,388.4-19.1,23.8-37.9,41.9-54.9,52.9-3.5,2.2-6.9,4.2-10.2,5.8,0,0,0,0-.1,0-1.9,1-3.8,1.8-5.7,2.5-4.1,1.6-7.9,2.7-11.6,3.1h0c-1.7.3-3.3.4-4.9.4-3,0-6.2-.4-9.6-1.4-1.3-.3-2.5-.7-3.8-1.1-19.7-6.7-44-26.8-69.1-56.6-67.2-79.9-140.4-229.9-148-381.4-.4-8.5-.7-17.1-.7-25.6,0-230.2,160.9-573.8,231.2-573.8s221.3,355.1,221.9,585.4Z"/><path class="cls-4" d="m781.1,263c70.1,0,221.3,335.7,221.9,553.5v1.3c0,146-38.4,300.2-104.5,378.4-19.1,22.5-82.3,105.3-117.4,106.7"/><path class="cls-5" d="m1161.2,1168.7l-.8.8c-88.1,88.1-213.3,135.4-298.3,145-24.5,2.7-45.6,2.3-61.5-1.2-3.3-.7-6.3-1.5-9.1-2.5,0,0,0,0-.1,0-1.7-.5-3.2-1.2-4.7-1.8-3.2-1.4-6-3-8.4-4.8h0c-1.1-.8-2.1-1.7-3-2.6-1.7-1.7-3.3-3.8-4.7-6.3-.6-.9-1.1-1.8-1.6-2.8-7.4-15-9.8-40.4-7.1-71.7,7.2-84,51.1-211.4,133.2-302.1,4.6-5.1,9.4-10.1,14.2-15,131.4-131.4,419.3-235.6,459.4-195.5,40,40-76.4,328.9-207.5,460.7Z"/><path class="cls-4" d="m1368.7,707.9c40,40-65.3,317.9-189.2,442.5l-.8.8c-140.2,165-356.9,186-400.4,152.8"/><path class="cls-4" d="m394.4,1168.8l.8.8c88.1,88.1,213.3,135.4,298.3,145,24.5,2.7,45.6,2.3,61.5-1.2,3.3-.7,6.3-1.5,9.1-2.5,0,0,0,0,.1,0,1.7-.5,3.2-1.2,4.7-1.8,3.2-1.4,6-3,8.4-4.8h0c1.1-.8,2.1-1.7,3-2.6,1.7-1.7,3.3-3.8,4.7-6.3.6-.9,1.1-1.8,1.6-2.8,7.4-15,9.8-40.4,7.1-71.7-7.2-84-51.1-211.4-133.2-302.1-4.6-5.1-9.4-10.1-14.2-15-131.4-131.4-419.3-235.6-459.4-195.5-40,40,76.4,328.9,207.5,460.7Z"/><path class="cls-5" d="m186.9,708.1c-40,40,65.3,317.9,189.2,442.5l.8.8c98.5,100.4,194.4,140.7,275.6,156.3,30.5,5.9,100.8,19.3,124.8-3.5"/><path class="cls-2" d="m551.6,839S302.4,247.3,744,41.2c126.4-59,294.5-65,294.5,153.5"/><path class="cls-5" d="m1076.5,278.5v-.3c1-32.4-11.2-64.6-23.3-82.3-3.5-5.1-7-9-10.2-11.4-.7-.5-1.3-.9-1.9-1.3,0,0,0,0,0,0-.4-.2-.7-.4-1.1-.6-.8-.4-1.5-.6-2.2-.7h0c-.3,0-.6,0-.9-.1-.6,0-1.2,0-1.9.2-.2,0-.5.1-.7.2-3.8,1.3-8.6,5.4-13.6,11.5-13.4,16.4-28.4,47.5-30.8,79.3-.1,1.8-.2,3.6-.3,5.4-1.4,48.3,27.3,121.4,40.8,121.8,13.4.4,44.7-73.3,46.2-121.7Z"/><path class="cls-4" d="m1030.3,400.2c13.4.4,44.6-69.2,46-115v-.3c.9-30.7-5.5-63.3-17.7-80.1-3.5-4.8-14.2-22.5-20.9-23"/><path class="cls-5" d="m21.2,620.2v-.2c13.1-25.2,35.9-44.7,52.7-53.1,4.8-2.4,9.2-3.9,12.6-4.4.7-.1,1.4-.2,2-.2,0,0,0,0,0,0,.4,0,.7,0,1.1,0,.7,0,1.4.2,2,.4h0c.3,0,.5.2.8.3.5.2.9.5,1.3,1,.2.1.3.3.5.5,2.4,2.6,4.3,7.7,5.6,14.5,3.3,18.2,1.7,48.3-9.9,73.6-.7,1.4-1.3,2.8-2,4.2-19.3,37.6-72.1,81.4-82.6,76-10.5-5.4-3.2-75,16-112.6Z"/>
<path class="cls-4" d="m5.2,732.9c-10.5-5.4-4.9-71.8,13.3-107.4v-.2c12.4-23.8,31-46.1,47.5-53.8,4.7-2.2,20.3-11.2,25.7-8.7"/>
</g>
</svg>